{
	"asset":{
		"generator":"Khronos glTF Blender I/O v4.2.70",
		"version":"2.0"
	},
	"scene":0,
	"scenes":[
		{
			"name":"Scene",
			"nodes":[
				0,
				1
			]
		}
	],
	"nodes":[
		{
			"mesh":0,
			"name":"rock.002",
			"rotation":[
				-0.9951785206794739,
				0,
				0,
				0.09808000177145004
			],
			"scale":[
				6.41214656829834,
				6.412147045135498,
				6.412147045135498
			],
			"translation":[
				0,
				6.399606704711914,
				0
			]
		},
		{
			"mesh":1,
			"name":"treemesh.001"
		}
	],
	"materials":[
		{
			"doubleSided":true,
			"name":"feuille.004",
			"pbrMetallicRoughness":{
				"baseColorFactor":[
					0.00401432067155838,
					0.21993547677993774,
					0.013667276129126549,
					1
				],
				"metallicFactor":0,
				"roughnessFactor":0.5
			}
		},
		{
			"doubleSided":true,
			"name":"TRONC.003",
			"pbrMetallicRoughness":{
				"baseColorFactor":[
					0.07834994047880173,
					0.029094766825437546,
					0.011579439975321293,
					1
				],
				"metallicFactor":0,
				"roughnessFactor":0.5
			}
		}
	],
	"meshes":[
		{
			"name":"rock.005",
			"primitives":[
				{
					"attributes":{
						"POSITION":0,
						"NORMAL":1
					},
					"indices":2,
					"material":0
				}
			]
		},
		{
			"name":"treemesh.001",
			"primitives":[
				{
					"attributes":{
						"POSITION":3,
						"NORMAL":4
					},
					"indices":5,
					"material":1
				}
			]
		}
	],
	"accessors":[
		{
			"bufferView":0,
			"componentType":5126,
			"count":146,
			"max":[
				0.5478137135505676,
				0.35365113615989685,
				0.678743839263916
			],
			"min":[
				-0.5069172382354736,
				-0.6895785927772522,
				-0.5292598605155945
			],
			"type":"VEC3"
		},
		{
			"bufferView":1,
			"componentType":5126,
			"count":146,
			"type":"VEC3"
		},
		{
			"bufferView":2,
			"componentType":5123,
			"count":864,
			"type":"SCALAR"
		},
		{
			"bufferView":3,
			"componentType":5126,
			"count":1975,
			"max":[
				1.7972041368484497,
				8.153546333312988,
				1.3967087268829346
			],
			"min":[
				-1.5433154106140137,
				0,
				-1.8924280405044556
			],
			"type":"VEC3"
		},
		{
			"bufferView":4,
			"componentType":5126,
			"count":1975,
			"type":"VEC3"
		},
		{
			"bufferView":5,
			"componentType":5123,
			"count":11508,
			"type":"SCALAR"
		}
	],
	"bufferViews":[
		{
			"buffer":0,
			"byteLength":1752,
			"byteOffset":0,
			"target":34962
		},
		{
			"buffer":0,
			"byteLength":1752,
			"byteOffset":1752,
			"target":34962
		},
		{
			"buffer":0,
			"byteLength":1728,
			"byteOffset":3504,
			"target":34963
		},
		{
			"buffer":0,
			"byteLength":23700,
			"byteOffset":5232,
			"target":34962
		},
		{
			"buffer":0,
			"byteLength":23700,
			"byteOffset":28932,
			"target":34962
		},
		{
			"buffer":0,
			"byteLength":23016,
			"byteOffset":52632,
			"target":34963
		}
	],
	"buffers":[
		{
			"byteLength":75648,
			"uri":"arbre1_new.bin"
		}
	]
}
